<svg width="27" height="28" viewBox="0 0 27 28" fill="none" xmlns="http://www.w3.org/2000/svg">
<g opacity="0.5" clip-path="url(#clip0_1_82)">
<path d="M24.7783 12.2798L20.0939 11.5581L17.2392 6.89453C17.0893 6.65043 16.879 6.44914 16.6286 6.31014C16.3781 6.17113 16.0961 6.09911 15.8097 6.10105L3.84555 6.19638C3.50034 6.19929 3.16462 6.30966 2.88502 6.51215C2.60543 6.71464 2.39585 6.9992 2.28541 7.32627L0.925842 11.3578V20.627H3.78021C4.00211 21.3483 4.4494 21.9795 5.05643 22.4278C5.66345 22.8762 6.39823 23.1181 7.15288 23.1181C7.90754 23.1181 8.64231 22.8762 9.24934 22.4278C9.85636 21.9795 10.3037 21.3483 10.5255 20.627H15.8192C16.0411 21.3483 16.4883 21.9795 17.0954 22.4278C17.7024 22.8762 18.4372 23.1181 19.1918 23.1181C19.9465 23.1181 20.6813 22.8762 21.2883 22.4278C21.8953 21.9795 22.3426 21.3483 22.5645 20.627H25.834V13.5107C25.8354 13.2129 25.7294 12.9245 25.5355 12.6985C25.3417 12.4724 25.0728 12.3238 24.7783 12.2798ZM11.7194 7.79413L15.8229 7.76144L18.1113 11.5001L11.7194 11.4979V7.79413ZM3.85883 7.85682L10.0588 7.80742V11.4973L2.6321 11.4947L3.85883 7.85682ZM7.15288 21.4573C6.7834 21.4573 6.42222 21.3477 6.11501 21.1425C5.80781 20.9372 5.56836 20.6454 5.42697 20.3041C5.28558 19.9627 5.24858 19.5871 5.32066 19.2247C5.39275 18.8624 5.57067 18.5295 5.83193 18.2682C6.09319 18.007 6.42605 17.829 6.78843 17.757C7.15081 17.6849 7.52642 17.7219 7.86778 17.8633C8.20913 18.0047 8.50089 18.2441 8.70616 18.5513C8.91143 18.8585 9.02099 19.2197 9.02099 19.5892C9.02044 20.0845 8.82345 20.5593 8.47323 20.9095C8.12301 21.2597 7.64817 21.4567 7.15288 21.4573ZM19.1918 21.4573C18.8223 21.4573 18.4612 21.3477 18.154 21.1425C17.8467 20.9372 17.6073 20.6454 17.4659 20.3041C17.3245 19.9627 17.2875 19.5871 17.3596 19.2247C17.4317 18.8624 17.6096 18.5295 17.8709 18.2682C18.1321 18.007 18.465 17.829 18.8274 17.757C19.1898 17.6849 19.5654 17.7219 19.9067 17.8633C20.2481 18.0047 20.5398 18.2441 20.7451 18.5513C20.9504 18.8585 21.0599 19.2197 21.0599 19.5892C21.0594 20.0845 20.8624 20.5593 20.5122 20.9095C20.162 21.2597 19.6871 21.4567 19.1918 21.4573ZM24.1735 18.9665H22.6643C22.5184 18.1516 22.0907 17.4141 21.4559 16.8828C20.821 16.3515 20.0196 16.0605 19.1918 16.0605C18.364 16.0605 17.5626 16.3515 16.9278 16.8828C16.293 17.4141 15.8652 18.1516 15.7193 18.9665H10.6254C10.4795 18.1516 10.0517 17.4141 9.41691 16.8828C8.78209 16.3515 7.98067 16.0605 7.15288 16.0605C6.3251 16.0605 5.52367 16.3515 4.88885 16.8828C4.25403 17.4141 3.82625 18.1516 3.68037 18.9665H2.58639V13.1559L19.738 13.1834L24.1735 13.8667V18.9665Z" fill="black" stroke="black" stroke-width="0.553515"/>
</g>
<defs>
<clipPath id="clip0_1_82">
<rect width="26.5687" height="26.5687" fill="white" transform="translate(0.0955811 0.7005)"/>
</clipPath>
</defs>
</svg>
