<svg width="28" height="28" viewBox="0 0 28 28" fill="none" xmlns="http://www.w3.org/2000/svg">
<g opacity="0.5">
<path d="M25.0429 23.9481H2.90228V21.7341H4.00931V5.12864C4.00931 4.83503 4.12594 4.55346 4.33355 4.34585C4.54116 4.13824 4.82274 4.02161 5.11634 4.02161H20.6147C20.9083 4.02161 21.1899 4.13824 21.3975 4.34585C21.6051 4.55346 21.7218 4.83503 21.7218 5.12864V10.6638H23.9358V21.7341H25.0429V23.9481ZM19.5077 21.7341H21.7218V12.8778H15.0796V21.7341H17.2937V15.0919H19.5077V21.7341ZM19.5077 10.6638V6.23566H6.22337V21.7341H12.8655V10.6638H19.5077ZM8.43743 12.8778H10.6515V15.0919H8.43743V12.8778ZM8.43743 17.306H10.6515V19.52H8.43743V17.306ZM8.43743 8.44972H10.6515V10.6638H8.43743V8.44972Z" fill="black"/>
</g>
</svg>
