<svg width="27" height="28" viewBox="0 0 27 28" fill="none" xmlns="http://www.w3.org/2000/svg">
<g opacity="0.5">
<path d="M19.9646 11.7708L16.6435 13.4313L12.2154 10.1103L11.1084 16.1989L14.983 19.52L15.5365 24.5016M19.9646 10.1103V24.5016M11.1084 19.52L8.89429 24.5016M9.44781 10.1103C7.78727 11.2173 6.68024 13.9849 6.68024 13.9849L8.89429 15.0919M13.3224 7.8962C13.9096 7.8962 14.4728 7.66293 14.888 7.24771C15.3032 6.8325 15.5365 6.26934 15.5365 5.68214C15.5365 5.09493 15.3032 4.53178 14.888 4.11656C14.4728 3.70134 13.9096 3.46808 13.3224 3.46808C12.7352 3.46808 12.1721 3.70134 11.7568 4.11656C11.3416 4.53178 11.1084 5.09493 11.1084 5.68214C11.1084 6.26934 11.3416 6.8325 11.7568 7.24771C12.1721 7.66293 12.7352 7.8962 13.3224 7.8962Z" stroke="black" stroke-width="2.21406" stroke-linecap="round" stroke-linejoin="round"/>
</g>
</svg>
