<svg width="27" height="28" viewBox="0 0 27 28" fill="none" xmlns="http://www.w3.org/2000/svg">
<g opacity="0.5">
<path d="M21.8295 18.8933L23.2667 19.3425V17.8367V15.9108V15.2972L22.7464 14.972L15.5631 10.4824V5.79978C15.5631 4.38913 14.4223 3.24832 13.0116 3.24832C11.601 3.24832 10.4602 4.38913 10.4602 5.79978V10.4824L3.27686 14.972L2.75656 15.2972V15.9108V17.8367V19.3425L4.19379 18.8933L10.4602 16.9351V20.172L8.97708 21.2843L8.53427 21.6165V22.17V23.6144V25.082L9.94543 24.6788L13.0116 23.8028L16.0778 24.6788L17.489 25.082V23.6144V22.17V21.6165L17.0462 21.2843L15.5631 20.172V16.9351L21.8295 18.8933Z" fill="white" stroke="black" stroke-width="2.21406"/>
</g>
</svg>
