<svg width="27" height="27" viewBox="0 0 27 27" fill="none" xmlns="http://www.w3.org/2000/svg">
<path d="M23.67 9.15274L17.0823 8.19533L14.1374 2.22515C14.057 2.06169 13.9247 1.92937 13.7612 1.84894C13.3513 1.64656 12.8531 1.81521 12.6481 2.22515L9.70326 8.19533L3.11557 9.15274C2.93395 9.17868 2.7679 9.2643 2.64076 9.39403C2.48706 9.55201 2.40237 9.76454 2.40529 9.98493C2.4082 10.2053 2.4985 10.4155 2.65633 10.5694L7.42261 15.2163L6.29655 21.7781C6.27015 21.9307 6.28704 22.0877 6.34531 22.2312C6.40358 22.3747 6.50091 22.4991 6.62624 22.5901C6.75158 22.6811 6.89992 22.7352 7.05443 22.7462C7.20895 22.7573 7.36346 22.7248 7.50045 22.6524L13.3928 19.5545L19.2851 22.6524C19.446 22.7381 19.6328 22.7666 19.8118 22.7355C20.2633 22.6576 20.5669 22.2295 20.489 21.7781L19.363 15.2163L24.1292 10.5694C24.259 10.4423 24.3446 10.2762 24.3705 10.0946C24.4406 9.64052 24.124 9.22019 23.67 9.15274Z" fill="black"/>
</svg>
