<svg width="22" height="23" viewBox="0 0 22 23" fill="none" xmlns="http://www.w3.org/2000/svg">
<path d="M13.7826 15.827C13.7255 15.0519 13.7095 14.2744 13.7346 13.4976L13.7337 13.5317C14.4279 12.8121 14.8608 11.8806 14.9634 10.8859L14.9652 10.8666C15.278 10.8407 15.7715 10.5363 15.9154 9.32965C15.9589 9.12183 15.9425 8.90596 15.8682 8.70707C15.7939 8.50819 15.6647 8.33445 15.4957 8.20601L15.4929 8.20417C16.0022 6.67278 17.0594 1.93469 13.5363 1.44575C13.1737 0.809212 12.2456 0.486328 11.039 0.486328C6.21141 0.57489 5.6293 4.13122 6.68466 8.20417C6.51426 8.33378 6.38428 8.50925 6.30995 8.71003C6.23562 8.91081 6.22 9.12861 6.26491 9.33795L6.26399 9.33057C6.4116 10.5354 6.90146 10.8417 7.21419 10.8675C7.32389 11.8732 7.77063 12.8122 8.48174 13.5317C8.50513 14.3221 8.48727 15.1132 8.42823 15.9017L8.43285 15.827C7.47527 18.3953 1.02867 17.6739 0.733459 22.6269H21.4515C21.1545 17.6739 14.7374 18.3953 13.7816 15.827H13.7826Z" fill="white"/>
</svg>
