<svg width="24" height="25" viewBox="0 0 24 25" fill="none" xmlns="http://www.w3.org/2000/svg">
<path d="M20.8295 16.8933L22.2667 17.3425V15.8367V13.9108V13.2972L21.7464 12.972L14.5631 8.48245V3.79978C14.5631 2.38913 13.4223 1.24832 12.0116 1.24832C10.601 1.24832 9.46018 2.38913 9.46018 3.79978V8.48245L2.27686 12.972L1.75656 13.2972V13.9108V15.8367V17.3425L3.19379 16.8933L9.46018 14.9351V18.172L7.97708 19.2843L7.53427 19.6165V20.17V21.6144V23.082L8.94543 22.6788L12.0116 21.8028L15.0778 22.6788L16.489 23.082V21.6144V20.17V19.6165L16.0462 19.2843L14.5631 18.172V14.9351L20.8295 16.8933Z" fill="white" stroke="black" stroke-width="2.21406"/>
</svg>
