<svg width="18" height="30" viewBox="0 0 18 30" fill="none" xmlns="http://www.w3.org/2000/svg">
<path d="M1.58807 0.73162C1.17299 1.14682 0.939819 1.70987 0.939819 2.29696C0.939819 2.88405 1.17299 3.4471 1.58807 3.8623L12.5477 14.8219L1.58807 25.7815C1.18476 26.199 0.961592 26.7583 0.966636 27.3388C0.971681 27.9194 1.20453 28.4747 1.61504 28.8852C2.02554 29.2957 2.58085 29.5285 3.16137 29.5336C3.74189 29.5386 4.30117 29.3155 4.71874 28.9121L17.2437 16.3872C17.6587 15.972 17.8919 15.409 17.8919 14.8219C17.8919 14.2348 17.6587 13.6717 17.2437 13.2565L4.71874 0.73162C4.30355 0.316548 3.74049 0.083374 3.1534 0.083374C2.56632 0.083374 2.00326 0.316548 1.58807 0.73162Z" fill="white"/>
</svg>
