<svg width="28" height="27" viewBox="0 0 28 27" fill="none" xmlns="http://www.w3.org/2000/svg">
<g clip-path="url(#clip0_1_807)">
<path d="M25.3176 0.163208H2.58119C1.52288 0.163208 0.665039 1.02105 0.665039 2.07936V24.8158C0.665039 25.8741 1.52288 26.7319 2.58119 26.7319H14.8575V16.4573H11.4067V12.4357H14.8575V9.476C14.8575 6.04383 16.9528 4.17572 20.0145 4.17572C21.4808 4.17572 22.741 4.28497 23.1083 4.33382V7.92106H20.9972C19.3314 7.92106 19.0089 8.71262 19.0089 9.87431V12.4357H22.9916L22.4726 16.4573H19.0089V26.7319H25.3176C26.3759 26.7319 27.2337 25.8741 27.2337 24.8158V2.07936C27.2337 1.02105 26.3759 0.163208 25.3176 0.163208V0.163208Z" fill="#808080"/>
</g>
<defs>
<clipPath id="clip0_1_807">
<rect width="26.5687" height="26.5687" fill="white" transform="translate(0.665039 0.163208)"/>
</clipPath>
</defs>
</svg>
