<svg width="27" height="27" viewBox="0 0 27 27" fill="none" xmlns="http://www.w3.org/2000/svg">
<g clip-path="url(#clip0_1_808)">
<path d="M25.941 1.16662C25.2721 0.497577 24.4706 0.163208 23.5368 0.163208H3.78304C2.84894 0.163208 2.04765 0.497698 1.37861 1.16662C0.709689 1.83535 0.37532 2.63677 0.37532 3.57069V23.3242C0.37532 24.258 0.709628 25.0596 1.37861 25.7284C2.04765 26.3973 2.84913 26.7319 3.78304 26.7319H23.5365C24.4701 26.7319 25.2719 26.3973 25.9408 25.7284C26.6098 25.0596 26.9439 24.258 26.9439 23.3242V3.57069C26.9438 2.63659 26.6098 1.8356 25.941 1.16662ZM9.91509 9.73715C10.9586 8.72829 12.2127 8.22362 13.6772 8.22362C15.1531 8.22362 16.4128 8.72829 17.4566 9.73715C18.5003 10.7462 19.0219 11.9658 19.0219 13.3956C19.0219 14.8253 18.5003 16.045 17.4566 17.0537C16.4128 18.063 15.1535 18.5676 13.6772 18.5676C12.2128 18.5676 10.9588 18.0626 9.91509 17.0537C8.87133 16.0448 8.34952 14.8253 8.34952 13.3956C8.34952 11.9658 8.87133 10.7463 9.91509 9.73715ZM23.9346 22.6153C23.9346 22.9149 23.8306 23.1656 23.6232 23.3676C23.4152 23.5693 23.1676 23.6702 22.8791 23.6702H4.38853C4.08876 23.6702 3.83775 23.5693 3.63613 23.3676C3.4342 23.1661 3.33332 22.9149 3.33332 22.6153V11.4063H5.77217C5.54164 12.1329 5.42635 12.8883 5.42635 13.6723C5.42635 15.8868 6.23346 17.7748 7.84787 19.3376C9.46246 20.8999 11.4055 21.6814 13.6772 21.6814C15.1763 21.6814 16.56 21.3237 17.8289 20.6088C19.0974 19.8935 20.1 18.9222 20.8385 17.694C21.5766 16.4658 21.9456 15.1252 21.9456 13.6723C21.9456 12.8884 21.8299 12.1331 21.5994 11.4063H23.9348V22.6154H23.9346V22.6153ZM23.9346 7.16841C23.9346 7.50284 23.8193 7.78541 23.5883 8.01599C23.3578 8.24676 23.0754 8.36199 22.7408 8.36199H19.7312C19.3969 8.36199 19.1141 8.2467 18.8836 8.01599C18.653 7.78541 18.5378 7.50284 18.5378 7.16841V4.31461C18.5378 3.99169 18.653 3.71209 18.8836 3.47563C19.1142 3.23929 19.397 3.12097 19.7312 3.12097H22.7408C23.0754 3.12097 23.3579 3.23923 23.5883 3.47563C23.8193 3.71209 23.9346 3.99169 23.9346 4.31461V7.16841Z" fill="#808080"/>
</g>
<defs>
<clipPath id="clip0_1_808">
<rect width="26.5687" height="26.5687" fill="white" transform="translate(0.374321 0.163208)"/>
</clipPath>
</defs>
</svg>
