<svg width="20" height="18" viewBox="0 0 20 18" fill="none" xmlns="http://www.w3.org/2000/svg">
<path d="M15.0028 16.009H17.0029V8.00864H11.0027V16.009H13.0027V10.0087H15.0028V16.009ZM1.00224 16.009V1.00834C1.00224 0.743116 1.1076 0.488751 1.29515 0.301206C1.48269 0.113662 1.73705 0.00830078 2.00228 0.00830078H16.0029C16.2681 0.00830078 16.5225 0.113662 16.71 0.301206C16.8976 0.488751 17.0029 0.743116 17.0029 1.00834V6.00856H19.003V16.009H20.003V18.0091H0.00219727V16.009H1.00224ZM5.00241 8.00864V10.0087H7.00249V8.00864H5.00241ZM5.00241 12.0088V14.0089H7.00249V12.0088H5.00241ZM5.00241 4.00847V6.00856H7.00249V4.00847H5.00241Z" fill="black"/>
</svg>
