<svg width="18" height="24" viewBox="0 0 18 24" fill="none" xmlns="http://www.w3.org/2000/svg">
<path d="M15.752 6.00834H13.5043L13.5048 2.25824C13.5048 1.01602 12.497 0.00817871 11.2548 0.00817871H6.75467C5.51245 0.00817871 4.50461 1.01602 4.50461 2.25824L4.5017 6.00834H2.25165C1.00943 6.00834 0.00158691 7.01617 0.00158691 8.25839V20.2587C0.00158691 21.5009 1.00943 22.5088 2.25165 22.5088H3.00401L3.00167 23.2588C3.00167 23.676 3.33449 24.0088 3.75168 24.0088H5.25172C5.66892 24.0088 6.00174 23.676 6.00174 23.2588L6.00643 22.5088H12.0066L12.0019 23.2588C12.0019 23.6748 12.3359 24.0088 12.7519 24.0088H14.252C14.668 24.0088 15.002 23.6748 15.002 23.2588L15.0043 22.5088H15.752C16.9942 22.5088 18.0021 21.5009 18.0021 20.2587V8.25839C18.0021 7.01617 16.9942 6.00834 15.752 6.00834ZM6.75645 2.25824H11.2566V6.00834H6.75645V2.25824ZM14.252 18.0086H3.75168C3.33917 18.0086 3.00167 17.6711 3.00167 17.2586C3.00167 16.8461 3.33917 16.5086 3.75168 16.5086H14.252C14.6645 16.5086 15.002 16.8461 15.002 17.2586C15.002 17.6711 14.6645 18.0086 14.252 18.0086ZM14.252 12.0085H3.75168C3.33917 12.0085 3.00167 11.671 3.00167 11.2585C3.00167 10.846 3.33917 10.5085 3.75168 10.5085H14.252C14.6645 10.5085 15.002 10.846 15.002 11.2585C15.002 11.671 14.6645 12.0085 14.252 12.0085Z" fill="black"/>
</svg>
