<svg width="22" height="22" viewBox="0 0 22 22" fill="none" xmlns="http://www.w3.org/2000/svg">
<path d="M21.1845 10.8444L11.5303 1.19725C11.4608 1.1276 11.3782 1.07235 11.2873 1.03465C11.1964 0.996945 11.099 0.977539 11.0006 0.977539C10.9022 0.977539 10.8048 0.996945 10.7139 1.03465C10.623 1.07235 10.5404 1.1276 10.4709 1.19725L0.816735 10.8444C0.535478 11.1256 0.376099 11.5077 0.376099 11.9061C0.376099 12.7335 1.04877 13.4062 1.87614 13.4062H2.89335V20.2899C2.89335 20.7048 3.22852 21.04 3.64337 21.04H9.50056V15.7898H12.1256V21.04H18.3578C18.7727 21.04 19.1078 20.7048 19.1078 20.2899V13.4062H20.125C20.5235 13.4062 20.9055 13.2491 21.1868 12.9655C21.7704 12.3796 21.7704 11.4303 21.1845 10.8444Z" fill="#2659C3"/>
</svg>
