<svg width="27" height="23" viewBox="0 0 27 23" fill="none" xmlns="http://www.w3.org/2000/svg">
<path d="M26.6523 3.20963C25.6643 3.64303 24.6115 3.93031 23.5139 4.06979C24.643 3.39561 25.5049 2.33618 25.91 1.05923C24.8573 1.68691 23.6949 2.13028 22.4561 2.3777C21.4565 1.31329 20.0317 0.654053 18.4774 0.654053C15.4619 0.654053 13.0342 3.10169 13.0342 6.1023C13.0342 6.53404 13.0707 6.94917 13.1604 7.34438C8.63208 7.12353 4.62519 4.9532 1.93345 1.64706C1.46351 2.46238 1.18786 3.39561 1.18786 4.40024C1.18786 6.28662 2.15928 7.95878 3.60728 8.92688C2.73217 8.91028 1.87367 8.65621 1.14635 8.25602C1.14635 8.27263 1.14635 8.29421 1.14635 8.3158C1.14635 10.9627 3.03439 13.1613 5.51026 13.6677C5.06689 13.789 4.58368 13.8471 4.08219 13.8471C3.73348 13.8471 3.38144 13.8271 3.05099 13.7541C3.75673 15.9111 5.75934 17.4969 8.14056 17.5484C6.28739 18.9981 3.9344 19.8715 1.38713 19.8715C0.940443 19.8715 0.512023 19.8516 0.0836029 19.7968C2.49637 21.3527 5.35583 22.2411 8.43946 22.2411C18.4625 22.2411 23.9423 13.9384 23.9423 6.74161C23.9423 6.50083 23.934 6.26835 23.9224 6.03754C25.0034 5.27036 25.9117 4.31223 26.6523 3.20963Z" fill="#808080"/>
</svg>
