<svg width="28" height="19" viewBox="0 0 28 19" fill="none" xmlns="http://www.w3.org/2000/svg">
<path d="M26.2324 2.07475C25.5117 0.792812 24.7296 0.557015 23.1372 0.467345C21.5464 0.35941 17.5461 0.314575 14.0805 0.314575C10.6084 0.314575 6.60644 0.35941 5.0173 0.465685C3.42816 0.557015 2.64438 0.791151 1.91707 2.07475C1.1748 3.35503 0.792877 5.56023 0.792877 9.44258C0.792877 9.4459 0.792877 9.44756 0.792877 9.44756C0.792877 9.45089 0.792877 9.45255 0.792877 9.45255V9.45587C0.792877 13.3216 1.1748 15.5434 1.91707 16.8104C2.64438 18.0924 3.4265 18.3248 5.01564 18.4328C6.60644 18.5258 10.6084 18.5806 14.0805 18.5806C17.5461 18.5806 21.5464 18.5258 23.1388 18.4344C24.7313 18.3265 25.5134 18.094 26.2341 16.8121C26.983 15.5451 27.3616 13.3233 27.3616 9.45753C27.3616 9.45753 27.3616 9.45255 27.3616 9.44923C27.3616 9.44923 27.3616 9.4459 27.3616 9.44424C27.3616 5.56023 26.983 3.35503 26.2324 2.07475ZM10.7561 14.4292V4.46593L19.0589 9.44756L10.7561 14.4292Z" fill="#808080"/>
</svg>
