<svg width="91" height="26" viewBox="0 0 91 26" fill="none" xmlns="http://www.w3.org/2000/svg">
<path d="M21.0711 0.361769V4.87637H13.443V25.858H8.08082V4.87637H0.418102V0.361769H21.0711ZM31.3457 11.5531C29.3623 11.5531 28.0304 12.1989 27.35 13.4904C26.9695 14.2169 26.7792 15.3355 26.7792 16.8461V25.858H21.8149V7.00394H26.5198V10.2904C27.2809 9.0335 27.9439 8.1744 28.509 7.71313C29.4315 6.94052 30.6308 6.55421 32.1068 6.55421C32.1991 6.55421 32.274 6.55998 32.3317 6.57151C32.4009 6.57151 32.545 6.57728 32.7641 6.58881V11.6396C32.4528 11.605 32.176 11.582 31.9338 11.5704C31.6917 11.5589 31.4956 11.5531 31.3457 11.5531ZM52.4658 25.858H46.3252L43.0733 20.2018L39.8041 25.858H33.8192L40.2539 16.3099L34.096 7.03854H40.1328L43.2809 12.5045L46.3598 7.03854H52.2236L46.0312 16.2234L52.4658 25.858ZM53.5382 7.00394H59.0733L62.9998 20.911L67.0128 7.00394H72.3058L65.508 25.858H60.3015L53.5382 7.00394ZM75.2118 0.361769H80.1415V25.858H75.2118V0.361769ZM84.881 20.7034H90.1221V25.858H84.881V20.7034Z" fill="white"/>
</svg>
